#!OML:ASF I:\Actors\actors\Patient Classification 2\Patient 1\Session 1\actor1.ASF
:FULLY-SPECIFIED
:DEGREES
439
root -2.10533 17.2952 6.02947 0.860566 30.0564 -2.02544
lowerback 15.6151 1.40431 11.8304
upperback 2.30458 4.17079 3.98361
thorax -5.75062 1.85835 -3.2156
lowerneck -16.1883 0.856205 -0.337728
upperneck 37.1369 4.5725 -6.43153
head 16.1615 1.17875 -1.84149
rclavicle 1.90833e-014 -2.22639e-014
rhumerus 6.61329 64.2351 -82.2491
rradius 64.933
rwrist -10.0505
rhand 0.205438 -38.7898
rfingers 7.12502
rthumb 25.7871 -67.0621
lclavicle 1.90833e-014 -2.22639e-014
lhumerus 13.7898 -21.3064 41.4504
lradius 27.9076
lwrist -30.7015
lhand 22.2438 -23.685
lfingers 7.12502
lthumb 46.6193 -0.852918
rfemur 35.0645 -22.3553 19.7914
rtibia -42.947
rfoot 3.3782 -22.9505
rtoes -12.5613
lfemur 19.9474 -6.41396 -10.3201
ltibia -44.2222
lfoot 23.6498 3.27241
ltoes -15.036
440
root -2.05975 17.305 6.02396 1.02251 28.3782 -1.84903
lowerback 15.593 1.51121 11.2968
upperback 2.49392 4.1924 3.94871
thorax -5.56474 1.89424 -2.95952
lowerneck -16.6236 0.405316 -1.08074
upperneck 37.6086 4.00312 -5.98558
head 16.456 0.872566 -1.63436
rclavicle -2.62396e-014 -9.54166e-015
rhumerus 2.74402 63.5813 -86.4048
rradius 63.2535
rwrist -8.54953
rhand 1.27313 -38.5911
rfingers 7.12502
rthumb 26.8092 -66.7109
lclavicle -2.62396e-014 -9.54166e-015
lhumerus 12.0136 -23.9527 42.7483
lradius 27.7604
lwrist -30.8275
lhand 21.9376 -24.2147
lfingers 7.12502
lthumb 46.3356 -1.26122
rfemur 34.9091 -21.8753 19.3086
rtibia -42.9585
rfoot 3.98742 -22.2111
rtoes -12.792
lfemur 20.3796 -5.81619 -10.5393
ltibia -44.153
lfoot 23.3684 3.48502
ltoes -15.9388
441
root -2.00972 17.3177 6.01939 1.11611 26.6389 -1.79074
lowerback 15.5552 1.58786 10.881
upperback 2.67206 4.19254 3.8923
thorax -5.37594 1.91562 -2.78566
lowerneck -16.9997 -0.0646857 -1.63585
upperneck 38.0592 3.41873 -5.74751
head 16.7491 0.560742 -1.55661
rclavicle -3.85642e-014 -6.20208e-014
rhumerus 1.64019 64.3313 -87.3754
rradius 61.5705
rwrist -9.0929
rhand 0.692925 -38.6292
rfingers 7.12502
rthumb 26.2539 -66.8329
lclavicle -3.85642e-014 -6.20208e-014
lhumerus 10.0749 -25.9521 44.693
lradius 27.5656
lwrist -31.19
lhand 21.3408 -24.7422
lfingers 7.12502
lthumb 45.782 -1.55747
rfemur 34.7457 -21.4705 18.9026
rtibia -42.9801
rfoot 4.71288 -21.4192
rtoes -13.2201
lfemur 20.8589 -5.25611 -10.6357
ltibia -44.0988
lfoot 23.0848 3.68559
ltoes -17.0044
442
root -1.95588 17.3318 6.01499 1.21807 24.8649 -1.7392
lowerback 15.413 1.64642 10.4566
upperback 2.88909 4.15007 3.82539
thorax -5.09364 1.92118 -2.60385
lowerneck -17.3922 -0.543319 -2.251
upperneck 38.5146 2.81836 -5.44795
head 17.0589 0.242263 -1.44624
rclavicle 4.21423e-014 -1.11319e-014
rhumerus 0.491573 65.0035 -88.2347
rradius 59.9657
rwrist -9.81188
rhand -0.0266533 -38.6964
rfingers 7.12502
rthumb 25.5648 -67.0008
lclavicle 4.21423e-014 -1.11319e-014
lhumerus 8.17846 -27.9788 46.7136
lradius 27.4555
lwrist -31.2702
lhand 20.9676 -25.1685
lfingers 7.12502
lthumb 45.4354 -1.84248
rfemur 34.5587 -21.1339 18.4765
rtibia -43.0205
rfoot 5.47026 -20.6449
rtoes -13.5251
lfemur 21.3428 -4.76566 -10.6982
ltibia -44.0691
lfoot 22.7919 4.09134
ltoes -16.9939
443
root -1.89917 17.3436 6.01006 1.36721 23.0777 -1.65222
lowerback 15.261 1.69495 10.0275
upperback 3.06582 4.09534 3.70765
thorax -4.84775 1.91565 -2.47142
lowerneck -17.6794 -1.02064 -2.90285
upperneck 38.9137 2.18275 -5.05134
head 17.3205 -0.0789073 -1.29123
rclavicle 4.01545e-014 -3.97569e-014
rhumerus -4.01026 63.0172 -93.0665
rradius 58.1534
rwrist -7.96948
rhand 0.161698 -38.6227
rfingers 7.12502
rthumb 25.7452 -66.9011
lclavicle 4.01545e-014 -3.97569e-014
lhumerus 6.29288 -30.1658 48.8298
lradius 27.3689
lwrist -31.1106
lhand 20.7574 -25.4901
lfingers 7.12502
lthumb 45.24 -2.08566
rfemur 34.3158 -20.8338 18
rtibia -43.0678
rfoot 6.28096 -19.8441
rtoes -13.7003
lfemur 21.7757 -4.26933 -10.7928
ltibia -44.0549
lfoot 22.5793 4.39265
ltoes -16.324
444
root -1.84122 17.3519 6.003 1.48723 21.3272 -1.66105
lowerback 15.2622 1.69043 9.66676
upperback 3.13276 4.01392 3.58474
thorax -4.80146 1.88213 -2.38747
lowerneck -17.805 -1.4691 -3.44782
upperneck 39.1756 1.59474 -4.81177
head 17.4821 -0.382182 -1.21308
rclavicle -5.1684e-014 -7.95139e-015
rhumerus -7.04268 61.6404 -96.2655
rradius 56.3419
rwrist -7.0434
rhand 0.0424647 -38.6097
rfingers 7.12502
rthumb 25.631 -66.9046
lclavicle -5.1684e-014 -7.95139e-015
lhumerus 4.15687 -31.96 51.4082
lradius 27.2409
lwrist -31.3685
lhand 20.3818 -25.7794
lfingers 7.12502
lthumb 44.8906 -2.23682
rfemur 34.0328 -20.6163 17.6146
rtibia -43.1166
rfoot 7.16759 -19.0491
rtoes -13.7816
lfemur 22.1673 -3.72635 -10.8066
ltibia -44.0577
lfoot 22.5002 4.38753
ltoes -18.6115
445
root -1.77918 17.3613 5.99686 1.53629 19.5768 -1.676
lowerback 15.2677 1.59229 9.16067
upperback 3.24961 3.78532 3.47927
thorax -4.72986 1.78096 -2.17782
lowerneck -17.9568 -1.82525 -3.83214
upperneck 39.2729 1.13999 -4.74054
head 17.5704 -0.631587 -1.21158
rclavicle 4.37326e-015 4.29375e-014
rhumerus -9.04453 61.6542 -97.6343
rradius 55.2924
rwrist -7.47259
rhand -0.622952 -38.7636
rfingers 7.12502
rthumb 24.9936 -67.1487
lclavicle 4.37326e-015 4.29375e-014
lhumerus 1.81339 -33.2642 54.2385
lradius 27.1214
lwrist -31.7522
lhand 20.0502 -26.1115
lfingers 7.12502
lthumb 44.5818 -2.44912
rfemur 33.8163 -20.4797 17.187
rtibia -43.1584
rfoot 8.05526 -18.2693
rtoes -13.7675
lfemur 22.6472 -3.194 -10.8529
ltibia -44.0836
lfoot 22.4338 4.33495
ltoes -25.656
446
root -1.71183 17.3713 5.99411 1.5252 17.8023 -1.66512
lowerback 15.2337 1.47329 8.64564
upperback 3.43331 3.51793 3.35521
thorax -4.56534 1.66565 -1.97183
lowerneck -18.1234 -2.17995 -4.24223
upperneck 39.2716 0.665501 -4.61238
head 17.6095 -0.884114 -1.18143
rclavicle 9.54166e-014 7.95139e-015
rhumerus -11.3538 59.0065 -100.491
rradius 53.1214
rwrist -5.20455
rhand -0.708557 -38.3948
rfingers 7.12502
rthumb 24.9115 -66.7913
lclavicle 9.54166e-014 7.95139e-015
lhumerus -0.480694 -34.5432 57.1547
lradius 27.0847
lwrist -31.7759
lhand 19.8487 -26.4372
lfingers 7.12502
lthumb 44.3941 -2.70289
rfemur 33.6694 -20.4284 16.6729
rtibia -43.1851
rfoot 8.97033 -17.3875
rtoes -13.9823
lfemur 23.2539 -2.75096 -10.9549
ltibia -44.1489
lfoot 22.2283 4.62784
ltoes -26.303
447
root -1.6428 17.3765 5.99139 1.49596 16.0412 -1.73294
lowerback 15.2037 1.41292 8.22821
upperback 3.62445 3.34871 3.30204
thorax -4.38233 1.59707 -1.76175
lowerneck -18.261 -2.60777 -4.86468
upperneck 39.2295 0.116938 -4.37781
head 17.6247 -1.18034 -1.07835
rclavicle -5.1684e-014 -2.70347e-014
rhumerus -12.5762 57.4373 -101.318
rradius 51.5725
rwrist -4.08516
rhand -1.11386 -38.2596
rfingers 7.12502
rthumb 24.5231 -66.7093
lclavicle -5.1684e-014 -2.70347e-014
lhumerus -2.62381 -35.8215 60.3664
lradius 27.1085
lwrist -31.6138
lhand 19.4492 -26.6422
lfingers 7.12502
lthumb 44.0216 -2.76741
rfemur 33.4906 -20.4353 16.2481
rtibia -43.2013
rfoot 9.80472 -16.5465
rtoes -13.5815
lfemur 23.8824 -2.30324 -10.9888
ltibia -44.2546
lfoot 22.1162 5.092
ltoes -25.7928
448
root -1.57246 17.3783 5.98647 1.52906 14.2927 -1.8457
lowerback 15.088 1.32133 7.67276
upperback 3.81004 3.11327 3.30256
thorax -4.17374 1.49646 -1.40392
lowerneck -18.4414 -2.96255 -5.42072
upperneck 39.1363 -0.312879 -4.21589
head 17.6292 -1.42876 -0.997389
rclavicle 2.82274e-014 1.11319e-014
rhumerus -13.1644 57.2 -101.057
rradius 50.275
rwrist -4.18192
rhand -1.78484 -38.4553
rfingers 7.12502
rthumb 23.8797 -66.9907
lclavicle 2.82274e-014 1.11319e-014
lhumerus -4.81818 -36.6414 63.7098
lradius 27.1578
lwrist -31.5426
lhand 18.8108 -26.7752
lfingers 7.12502
lthumb 43.4257 -2.6814
rfemur 33.1991 -20.4328 15.9139
rtibia -43.2147
rfoot 10.525 -15.8696
rtoes -12.0917
lfemur 24.4262 -1.82783 -10.9965
ltibia -44.3794
lfoot 22.0967 5.51119
ltoes -25.3035
449
root -1.50082 17.3799 5.98186 1.62334 12.5386 -1.93798
lowerback 14.9618 1.14657 7.02295
upperback 3.93549 2.75531 3.21733
thorax -4.02808 1.33051 -1.06391
lowerneck -18.6474 -3.19738 -5.7959
upperneck 39.031 -0.628242 -4.05282
head 17.6323 -1.60467 -0.926118
rclavicle -1.19271e-015 2.54444e-014
rhumerus -14.1869 54.3722 -102.086
rradius 48.5434
rwrist -1.80351
rhand -1.70419 -38.3288
rfingers 7.12502
rthumb 23.9571 -66.854
lclavicle -1.19271e-015 2.54444e-014
lhumerus -6.95694 -37.0924 66.9332
lradius 27.6693
lwrist -29.3384
lhand 18.094 -26.1743
lfingers 7.12502
lthumb 42.7556 -1.84251
rfemur 32.832 -20.4376 15.5873
rtibia -43.227
rfoot 11.267 -15.1856
rtoes -10.6779
lfemur 24.8961 -1.34864 -11.0387
ltibia -44.4888
lfoot 21.7914 5.96687
ltoes -25.6068
450
root -1.42957 17.3803 5.9815 1.69027 10.7505 -2.02037
lowerback 14.9008 1.00124 6.41525
upperback 4.0425 2.45048 3.10092
thorax -3.92412 1.18708 -0.79149
lowerneck -18.9065 -3.45408 -6.35232
upperneck 39.0395 -1.0027 -3.61926
head 17.7203 -1.79322 -0.716314
rclavicle -3.69739e-014 -2.22639e-014
rhumerus -14.3358 55.0244 -101.052
rradius 47.6402
rwrist -3.00693
rhand -2.38736 -38.3747
rfingers 7.12502
rthumb 23.3018 -66.9846
lclavicle -3.69739e-014 -2.22639e-014
lhumerus -8.97538 -37.6605 70.056
lradius 27.6407
lwrist -29.6518
lhand 16.445 -26.6859
lfingers 7.12502
lthumb 41.21 -1.83661
rfemur 32.4958 -20.4671 15.2526
rtibia -43.2382
rfoot 12.093 -14.3687
rtoes -9.99113
lfemur 25.4059 -0.852818 -11.0871
ltibia -44.5638
lfoot 21.3705 6.41056
ltoes -25.7092
451
root -1.35756 17.3803 5.98464 1.71157 8.87677 -2.07319
lowerback 14.8785 0.949721 5.81799
upperback 4.12683 2.27631 2.97808
thorax -3.85302 1.10539 -0.555171
lowerneck -19.0671 -3.77097 -7.01573
upperneck 39.1569 -1.45575 -3.11134
head 17.8558 -2.01711 -0.471161
rclavicle 6.63941e-014 -4.77083e-015
rhumerus -14.3864 53.932 -100.1
rradius 46.381
rwrist -2.15738
rhand -1.53851 -37.9403
rfingers 7.12502
rthumb 24.116 -66.4446
lclavicle 6.63941e-014 -4.77083e-015
lhumerus -10.9137 -38.4277 73.2149
lradius 27.1296
lwrist -32.2906
lhand 13.5405 -28.0947
lfingers 7.12502
lthumb 38.4761 -2.4266
rfemur 32.204 -20.4325 14.8821
rtibia -43.2691
rfoot 12.9909 -13.5246
rtoes -9.4818
lfemur 26.0064 -0.438265 -11.1796
ltibia -44.6297
lfoot 20.9179 6.72499
ltoes -25.4624
452
root -1.28217 17.3781 5.98681 1.7906 6.97728 -2.15329
lowerback 14.8143 0.865235 5.22576
upperback 4.09075 2.06135 2.80362
thorax -3.88334 0.99889 -0.368783
lowerneck -18.9178 -4.02536 -7.40203
upperneck 39.1982 -1.84729 -2.8716
head 17.8632 -2.21058 -0.376634
rclavicle 1.59028e-014 3.02153e-014
rhumerus -14.5967 51.8147 -99.5159
rradius 44.9351
rwrist 0.073993
rhand -0.0980241 -37.3354
rfingers 7.12502
rthumb 25.4965 -65.6496
lclavicle 1.59028e-014 3.02153e-014
lhumerus -12.7693 -38.6725 76.2948
lradius 27.0682
lwrist -32.5836
lhand 16.654 -27.7973
lfingers 7.12502
lthumb 41.4062 -3.01137
rfemur 31.7934 -20.3564 14.5896
rtibia -43.2744
rfoot 13.8431 -12.7755
rtoes -8.79827
lfemur 26.5332 -0.119676 -11.2618
ltibia -44.6616
lfoot 20.3856 6.89678
ltoes -25.4093
453
root -1.20191 17.3716 5.98677 2.10357 5.16554 -2.23628
lowerback 14.4927 0.732356 4.71825
upperback 3.96642 1.78065 2.58133
thorax -3.86214 0.860117 -0.264041
lowerneck -18.6799 -4.26403 -7.73216
upperneck 39.2012 -2.25748 -2.61717
head 17.8274 -2.40054 -0.285744
rclavicle -2.80286e-014 -3.97569e-015
rhumerus -14.8362 49.9376 -98.8882
rradius 43.6639
rwrist 1.37656
rhand -1.93343 -37.9984
rfingers 7.12502
rthumb 23.7372 -66.5524
lclavicle -2.80286e-014 -3.97569e-015
lhumerus -14.5728 -39.0202 79.2061
lradius 27.1194
lwrist -32.7781
lhand 16.6617 -28.0707
lfingers 7.12502
lthumb 41.4134 -3.28712
rfemur 31.103 -20.3536 14.4045
rtibia -43.2828
rfoot 14.5965 -12.1829
rtoes -7.67248
lfemur 26.7943 0.141914 -11.3488
ltibia -44.729
lfoot 20.032 7.16031
ltoes -25.0361
